<svg version="1.1" id="Layer_1" xmlns="http://www.w3.org/2000/svg" xmlns:xlink="http://www.w3.org/1999/xlink" x="0px" y="0px"
	 width="100%" viewBox="0 0 1316 1238" enable-background="new 0 0 1316 1238" xml:space="preserve">
<path fill="#FFFFFE" opacity="1.000000" stroke="none" 
	d="
M1.000000,466.000000 
	C1.000000,310.666656 1.000000,155.833328 1.000000,1.000000 
	C439.666656,1.000000 878.333313,1.000000 1317.000000,1.000000 
	C1317.000000,413.666656 1317.000000,826.333313 1317.000000,1239.000000 
	C878.333313,1239.000000 439.666656,1239.000000 1.000000,1239.000000 
	C1.000000,981.500000 1.000000,724.000000 1.000000,466.000000 
M693.352539,814.893555 
	C691.877563,815.646179 690.473083,816.619263 688.916626,817.117310 
	C673.259216,822.127808 657.706543,827.528992 641.872681,831.910278 
	C614.981384,839.351257 587.698792,845.430786 560.965942,853.378235 
	C529.013794,862.877441 498.767792,876.124939 474.430389,900.049438 
	C471.501068,902.929077 465.982117,903.011475 463.033386,900.259155 
	C459.836853,897.275513 460.289734,893.677551 462.225616,890.254639 
	C472.310181,872.423462 486.483765,858.029785 502.415985,845.674866 
	C522.882080,829.803955 545.796143,817.784424 569.758911,808.018677 
	C594.393188,797.979248 619.283264,788.567566 644.049805,778.851685 
	C648.602600,777.065613 652.175781,774.311829 652.953613,769.043213 
	C653.722656,763.834106 650.770569,760.455688 647.053101,757.708191 
	C641.040283,753.264526 634.844666,749.067383 628.708130,744.792053 
	C619.046753,738.061096 608.963928,737.909790 599.169495,743.977844 
	C561.298035,767.440918 523.352722,790.796814 485.861267,814.857056 
	C460.907654,830.871155 438.295380,850.102417 417.106628,870.757690 
	C402.491028,885.005188 389.407990,900.821960 375.570679,915.873657 
	C373.627899,917.986877 374.035431,919.433960 375.822510,921.369446 
	C397.031158,944.339844 420.706421,964.516846 446.757446,981.660400 
	C482.424011,1005.131531 520.963928,1022.391479 562.530396,1032.813599 
	C594.775635,1040.898438 627.489136,1045.284302 660.643738,1044.765747 
	C679.165222,1044.476074 697.724915,1042.322876 716.131897,1039.955811 
	C748.989197,1035.730713 780.423340,1025.967529 810.629517,1012.579163 
	C842.064575,998.646057 871.098450,980.799133 897.950684,959.068909 
	C920.867615,940.523254 941.188232,919.667480 959.428406,896.722717 
	C979.600281,871.347778 995.621521,843.411682 1008.707397,813.761169 
	C1026.670410,773.059875 1037.284790,730.429138 1039.601440,686.129089 
	C1040.804565,663.123047 1039.674072,639.841003 1037.621582,616.860107 
	C1035.360962,591.547607 1029.401978,566.757324 1021.338806,542.568176 
	C1013.157471,518.024658 1002.964661,494.337860 989.851868,472.040283 
	C982.619568,459.742126 974.390991,448.023743 966.426575,436.168213 
	C965.061707,434.136353 963.449036,430.682556 960.258118,435.235901 
	C947.774658,453.049652 935.636597,471.155670 922.223328,488.253357 
	C909.115540,504.961517 895.467712,521.427124 880.505432,536.454407 
	C860.935181,556.109680 840.545959,575.096497 819.215271,592.813171 
	C795.088257,612.852417 769.956543,631.763245 744.465759,650.055542 
	C720.566467,667.205811 695.621460,682.898254 671.160217,699.267456 
	C669.608704,700.305725 668.261658,701.649414 666.313843,703.272278 
	C672.399109,707.006775 677.854797,710.139526 683.088562,713.607239 
	C698.657532,723.922913 713.026794,735.617798 720.501404,753.348572 
	C726.270691,767.034058 726.149902,780.755188 717.813538,793.861938 
	C711.883240,803.185730 703.521973,809.471069 693.352539,814.893555 
M276.022766,696.557800 
	C278.177582,711.532349 279.529663,726.675293 282.630585,741.451294 
	C294.149902,796.341614 316.827637,846.329895 350.287811,891.377563 
	C353.116394,895.185608 356.247833,898.768677 359.584442,902.882690 
	C360.683197,901.323486 361.484955,900.496765 361.929810,899.509277 
	C377.778656,864.328979 400.451843,833.851074 426.701904,805.894714 
	C462.135376,768.158142 502.852295,736.728455 545.800659,708.221863 
	C583.671997,683.085144 622.269165,659.041992 660.545715,634.515808 
	C665.076355,631.612732 669.606689,628.709290 675.142822,625.161621 
	C672.891785,624.618225 672.000854,624.219360 671.108276,624.215454 
	C657.944580,624.157654 644.763672,623.723938 631.621094,624.244507 
	C615.703979,624.875000 600.331360,628.296021 585.796204,635.193970 
	C558.314819,648.235657 537.581299,669.266602 518.182983,691.893372 
	C509.841766,701.622803 501.695526,711.519470 493.469055,721.347168 
	C490.988892,724.310120 487.965271,724.992249 484.526825,723.337646 
	C480.864044,721.575256 480.437927,718.309204 481.105347,714.814941 
	C481.508362,712.704895 482.313995,710.671143 482.947754,708.605835 
	C492.618042,677.091797 507.991516,648.740417 530.752197,624.783264 
	C560.012939,593.984314 595.932922,578.008545 638.650513,578.940979 
	C657.429199,579.350830 676.179749,581.073914 694.941101,582.232056 
	C698.153076,582.430237 701.355408,582.785278 704.087097,583.026001 
	C697.612549,573.985901 690.610291,565.607605 685.217773,556.296997 
	C679.510193,546.442261 678.801636,535.177673 679.629395,523.834595 
	C680.456299,512.503174 684.542908,502.465118 691.011536,493.350891 
	C697.592224,484.078857 706.038269,476.855286 716.457092,472.187897 
	C733.234314,464.672058 750.504150,463.730835 767.371033,471.034790 
	C794.492126,482.779205 806.882263,504.741150 807.612488,534.817383 
	C810.402405,532.887939 812.207520,531.777161 813.861572,530.474609 
	C832.297241,515.956909 851.190552,501.972290 869.014771,486.737488 
	C895.326233,464.248566 920.861938,440.852539 946.763062,417.882263 
	C949.098511,415.811035 949.505188,414.104095 947.069458,411.734985 
	C932.517700,397.581360 918.684570,382.614716 903.419922,369.283905 
	C873.976990,343.570801 840.729492,323.548553 804.610657,308.684265 
	C755.061096,288.292755 703.455933,278.533936 649.709167,279.702484 
	C621.078735,280.324951 592.994629,284.116791 565.283691,290.851196 
	C523.488586,301.008453 484.606415,318.033997 448.511200,341.455780 
	C415.984039,362.562286 387.355408,388.078156 362.617645,417.867767 
	C339.947632,445.167389 321.172974,474.995697 306.852295,507.515686 
	C288.083282,550.137207 276.782837,594.643799 275.037018,641.248901 
	C274.359436,659.336914 275.606201,677.497070 276.022766,696.557800 
M349.130219,166.538269 
	C349.694275,167.913635 350.138458,169.353806 350.841370,170.654114 
	C356.303162,180.757980 361.809601,190.837738 367.312286,200.919479 
	C376.642059,218.012955 386.041687,235.068848 395.260223,252.222092 
	C397.087982,255.623077 399.078094,256.497131 402.395874,254.431747 
	C404.653137,253.026566 406.961182,251.643036 409.395233,250.595200 
	C413.518921,248.820023 414.444458,246.539337 412.008453,242.468201 
	C406.625244,233.471710 401.563232,224.282440 396.410095,215.149292 
	C395.022522,212.690048 393.778107,210.150024 392.467957,207.647079 
	C392.848785,207.401337 393.229614,207.155594 393.610443,206.909851 
	C394.556610,207.470978 395.558411,207.956451 396.440521,208.604797 
	C406.762146,216.191193 417.320648,223.486893 427.271484,231.533447 
	C432.608032,235.848724 436.937500,236.683289 442.724854,232.604980 
	C447.611023,229.161728 448.052795,229.069321 445.114410,223.655624 
	C431.533508,198.634247 418.082733,173.541351 404.351562,148.602783 
	C397.688782,136.501770 400.178955,136.987106 387.241119,143.622086 
	C383.251373,145.668152 382.295044,147.860550 384.615112,151.876511 
	C390.693054,162.397064 396.543549,173.049438 402.435486,183.676590 
	C403.494812,185.587280 404.319214,187.628265 405.788300,190.747711 
	C403.741669,189.797943 402.937012,189.592041 402.339630,189.122452 
	C391.224731,180.385880 380.055084,171.716034 369.067780,162.821152 
	C362.059387,157.147461 354.814178,158.082840 349.130219,166.538269 
M794.183472,120.909431 
	C795.168823,115.685219 796.061890,110.441505 797.159607,105.240997 
	C799.176208,95.687164 799.225220,95.704079 789.873535,93.743759 
	C788.570740,93.470657 787.267029,93.166626 786.000610,92.761528 
	C782.358215,91.596382 780.261536,92.808899 779.591003,96.628441 
	C777.495056,108.568710 775.377502,120.505432 773.194885,132.430099 
	C772.686890,135.205582 771.888062,137.927826 771.223022,140.674576 
	C769.885742,139.542130 769.601257,138.604340 769.396179,137.649536 
	C766.183655,122.696144 762.882690,107.760590 759.842346,92.772202 
	C759.025696,88.746162 757.251526,86.484123 753.011475,86.301155 
	C751.373535,86.230484 749.749084,85.716309 748.130798,85.349998 
	C743.978699,84.410164 742.097351,86.040642 741.376526,90.275627 
	C739.399353,101.891953 737.113098,113.457008 734.853455,125.023651 
	C731.129028,144.089035 727.312378,163.136429 723.578430,182.199997 
	C722.974365,185.284286 723.871643,187.358017 727.476746,187.740005 
	C730.438110,188.053787 733.411133,188.595428 736.275940,189.402008 
	C740.298767,190.534637 742.133118,189.181244 742.793457,185.094788 
	C744.674561,173.454727 746.767578,161.848694 748.815186,150.235977 
	C749.116699,148.525604 749.623901,146.851486 750.392944,143.695770 
	C751.436401,146.111542 751.996643,147.050598 752.257446,148.066513 
	C755.603943,161.101105 758.913086,174.145264 762.220154,187.189941 
	C764.305298,195.414703 764.545410,195.083771 773.096863,196.824905 
	C778.506836,197.926422 779.808044,195.674988 780.635315,191.285645 
	C785.007324,168.089340 789.491150,144.914062 794.183472,120.909431 
M1252.252686,633.045532 
	C1252.066040,631.225098 1251.836426,629.407776 1251.702148,627.583435 
	C1251.472534,624.467041 1249.949951,623.153748 1246.761475,623.578064 
	C1235.565430,625.067993 1224.369629,626.576416 1213.147583,627.845276 
	C1209.630249,628.243042 1206.029907,627.907349 1201.041992,627.907349 
	C1203.401978,626.373779 1204.651733,625.456909 1205.994141,624.705688 
	C1217.171997,618.451111 1228.139648,611.759705 1239.641602,606.169006 
	C1246.549683,602.811279 1250.571899,599.109863 1247.863403,591.086060 
	C1247.812378,590.935120 1247.841309,590.754944 1247.843506,590.588501 
	C1247.894653,586.544006 1246.294800,585.044556 1241.960571,585.624451 
	C1231.593140,587.011475 1221.164551,587.951965 1210.752197,588.988281 
	C1189.760620,591.077454 1168.764893,593.126648 1147.766724,595.148987 
	C1144.685547,595.445801 1143.199097,596.892029 1143.630981,600.040588 
	C1144.127930,603.662964 1144.664795,607.279907 1145.156250,610.903015 
	C1145.559448,613.875916 1147.172363,614.590332 1150.069458,614.197327 
	C1160.276123,612.812683 1170.515625,611.670959 1180.739502,610.411377 
	C1184.612061,609.934265 1188.475952,609.387329 1192.343872,608.872192 
	C1190.868408,611.072876 1189.074707,612.457886 1187.147461,613.621582 
	C1176.461670,620.073669 1165.708618,626.414673 1155.048218,632.908142 
	C1147.438843,637.543091 1147.009888,639.048645 1148.679321,647.866699 
	C1149.391113,651.627380 1150.922974,652.634216 1154.811157,652.116516 
	C1167.323853,650.450684 1179.892090,649.188293 1192.451416,647.891541 
	C1210.135132,646.065613 1227.844116,644.476685 1245.513306,642.523254 
	C1252.912476,641.705200 1252.878540,641.398376 1252.252686,633.045532 
M908.889893,240.338699 
	C908.207031,241.482773 907.674805,242.758011 906.813782,243.746994 
	C903.914001,247.077820 904.328796,249.446640 908.400696,251.442001 
	C910.921936,252.677490 913.303894,254.312988 915.492981,256.084595 
	C919.191711,259.077942 921.484863,258.031403 923.888367,254.277390 
	C929.902039,244.884811 936.315002,235.748520 942.372803,226.383270 
	C944.145325,223.643021 945.716614,223.324112 948.450928,224.984055 
	C958.007568,230.785690 959.664795,237.387833 953.617920,246.593552 
	C950.967163,250.628998 948.271912,254.635193 945.605774,258.660614 
	C937.459229,270.960419 937.531738,270.854706 949.848816,279.016998 
	C953.421509,281.384491 955.469482,280.609650 957.510437,277.268524 
	C959.850891,273.437225 962.568237,269.835541 964.895630,265.996918 
	C970.441467,256.849945 978.128845,248.608566 977.096313,236.612183 
	C976.994690,235.431931 979.237000,233.400558 980.783752,232.832520 
	C991.303528,228.969101 998.371643,221.801483 1000.603577,210.894791 
	C1003.127075,198.563034 999.837830,187.698975 989.343384,179.983704 
	C981.973816,174.565826 974.098022,169.838440 966.700134,164.456436 
	C962.799194,161.618408 960.948303,162.633377 958.477112,166.369781 
	C942.233398,190.929611 925.750854,215.331421 908.889893,240.338699 
M214.058395,352.389496 
	C227.310150,363.238159 240.604324,374.035797 253.778122,384.978302 
	C256.433807,387.184235 258.304352,387.137085 260.414398,384.420227 
	C265.102478,378.384003 270.018433,372.523132 274.648529,366.443787 
	C285.728119,351.896271 284.193207,333.511871 270.482147,321.611664 
	C259.942749,312.464264 249.080658,303.658051 238.001602,295.170654 
	C223.723221,284.232300 207.009369,285.809540 195.053329,299.088196 
	C189.391251,305.376617 184.390472,312.258484 179.042801,318.833038 
	C177.197632,321.101501 177.414459,322.735168 179.786026,324.631378 
	C191.082016,333.663269 202.259430,342.843475 214.058395,352.389496 
M520.189758,136.642426 
	C522.788208,148.985153 524.794678,161.491180 528.142822,173.627075 
	C531.884460,187.189423 546.603821,196.575348 558.996521,194.502991 
	C575.536926,191.737045 586.219055,180.095398 585.388733,164.152878 
	C584.917908,155.111572 582.274109,146.199921 580.971436,137.177521 
	C580.433044,133.448486 578.590515,132.837891 575.500305,133.455826 
	C570.453430,134.465012 565.401550,135.449249 560.358948,136.479065 
	C550.049927,138.584473 550.053528,138.593750 551.977600,148.953918 
	C552.190063,150.097427 552.471741,151.240662 552.545166,152.395218 
	C552.866943,157.456314 555.750000,158.529053 560.025208,157.106003 
	C564.177795,155.723755 565.555237,157.492126 565.414917,161.389618 
	C565.349121,163.216980 565.575562,165.071732 565.346375,166.872940 
	C564.821655,170.995392 562.116638,173.827286 558.341858,174.341919 
	C555.777771,174.691498 552.309387,173.710785 550.382141,172.025208 
	C548.195496,170.112839 546.720947,166.902252 545.925171,163.986328 
	C544.354492,158.230820 543.464111,152.289566 542.294312,146.424744 
	C540.604858,137.954163 538.826233,129.500015 537.259888,121.006729 
	C536.176208,115.130699 539.675415,109.225594 544.704285,107.958588 
	C549.258484,106.811180 554.191895,110.263649 556.233704,116.041794 
	C556.510620,116.825363 556.861572,117.616890 556.945801,118.428841 
	C557.465088,123.431297 559.707581,124.435066 564.709473,123.256424 
	C578.936096,119.904068 579.350586,119.808250 573.860474,106.103241 
	C569.581787,95.422241 561.096008,89.469238 549.870239,88.385231 
	C537.812988,87.220932 528.093079,91.954369 521.579102,102.468292 
	C514.879944,113.281029 517.214966,124.536102 520.189758,136.642426 
M160.800888,601.690369 
	C156.635727,599.409180 152.705307,596.020996 148.256454,595.077637 
	C139.043381,593.124023 129.567245,592.337097 120.163536,591.448730 
	C118.975723,591.336487 116.677223,593.330322 116.433533,594.635864 
	C115.614204,599.025146 115.552643,603.550781 115.090462,608.012817 
	C113.653915,621.881226 113.646599,621.718445 127.651543,622.801270 
	C132.259872,623.157532 134.042084,621.889709 133.966217,617.160278 
	C133.943085,615.717896 136.005753,613.066650 137.240250,612.988953 
	C141.865341,612.697937 146.699677,613.832703 148.679993,618.420776 
	C149.829651,621.084290 149.884247,625.148560 148.638550,627.710876 
	C146.512756,632.083496 142.004807,633.317261 137.093704,632.808777 
	C130.483292,632.124329 123.841644,631.741150 117.231476,631.054626 
	C108.636589,630.162048 100.042831,629.220825 91.481628,628.057434 
	C87.153175,627.469299 83.000786,622.916992 82.694626,618.931274 
	C82.316711,614.011353 85.213196,611.079468 89.285393,609.381165 
	C91.176712,608.592407 93.565269,608.539062 95.656563,608.778992 
	C100.455070,609.329285 102.626671,608.129272 103.259880,602.647095 
	C104.837265,588.990540 105.038483,588.763794 91.514862,589.056885 
	C79.099861,589.326050 70.390755,595.535034 65.369652,606.633057 
	C60.544735,617.297485 63.344196,630.373352 71.319725,638.595764 
	C77.755447,645.230652 85.703735,647.542419 94.632683,648.244568 
	C109.868919,649.442810 125.043053,651.552185 140.292145,652.426270 
	C152.141159,653.105347 163.884872,645.248047 167.815933,634.447998 
	C172.126862,622.604492 170.550476,611.516357 160.800888,601.690369 
M1218.240601,482.237762 
	C1208.434326,474.751740 1197.737061,473.653015 1186.180542,477.440155 
	C1175.124023,481.063538 1163.867310,484.098694 1152.902100,487.968994 
	C1146.422974,490.255829 1139.679688,492.760315 1134.216187,496.754791 
	C1123.310181,504.728577 1120.567139,521.111511 1127.004028,533.229736 
	C1133.091064,544.688965 1148.794312,551.464111 1161.159546,547.705383 
	C1176.082397,543.169250 1190.895142,538.270447 1205.824463,533.756592 
	C1229.159058,526.701355 1235.959106,500.101593 1218.240601,482.237762 
M157.679871,490.017273 
	C146.545563,486.656158 135.510269,482.905945 124.249809,480.040588 
	C112.385475,477.021576 101.111160,478.920258 92.770866,488.540039 
	C78.436302,505.073669 85.360214,529.221069 106.397430,536.548767 
	C117.509888,540.419495 128.819901,543.758301 140.144318,546.972290 
	C146.945358,548.902527 153.892715,551.068726 160.868652,551.463989 
	C172.873291,552.144287 183.765656,544.191528 188.340073,532.930481 
	C192.779221,522.002441 189.884476,509.502350 181.208664,500.887177 
	C174.852066,494.575073 166.523560,492.744873 157.679871,490.017273 
M878.399658,165.234711 
	C874.083252,163.479919 869.781738,161.687241 865.444702,159.984894 
	C862.937561,159.000763 862.156555,157.494141 863.286377,154.921692 
	C864.959595,151.111969 866.623962,147.284622 868.000305,143.362381 
	C869.151489,140.081573 870.854004,139.400284 874.033508,140.796616 
	C880.582886,143.672913 887.273560,146.225861 893.859680,149.021286 
	C896.844238,150.288086 898.885193,150.081894 900.049011,146.581619 
	C901.202515,143.112289 902.662292,139.736435 904.134277,136.383896 
	C905.455200,133.375458 904.353394,131.730698 901.516846,130.588074 
	C889.010376,125.550201 876.507324,120.501503 864.059937,115.320236 
	C860.400208,113.796867 858.498962,114.366760 856.906494,118.379959 
	C850.461243,134.623032 843.608093,150.703796 836.965393,166.869080 
	C831.652832,179.797729 826.448853,192.770996 821.143677,205.702698 
	C820.135376,208.160507 819.876831,210.229767 822.835571,211.427505 
	C836.097595,216.796280 849.363770,222.154846 862.621826,227.533539 
	C865.359741,228.644272 867.075500,227.714035 868.107300,225.045731 
	C869.368469,221.784378 870.563293,218.484970 872.053772,215.328003 
	C873.740295,211.755493 872.639282,209.764465 869.101929,208.414932 
	C862.727600,205.983032 856.462830,203.263611 850.087158,200.835312 
	C846.718811,199.552444 845.778015,197.530579 847.180481,194.244568 
	C849.075745,189.804047 851.017273,185.376526 852.700439,180.854630 
	C853.844360,177.781433 855.485901,177.266037 858.422241,178.535645 
	C864.376038,181.109863 870.447754,183.410904 876.468750,185.830017 
	C883.036987,188.469025 883.035889,188.471649 885.729309,181.818695 
	C890.395752,170.292236 890.395813,170.292267 878.399658,165.234711 
M266.203003,243.334839 
	C284.441772,265.358154 302.733917,287.337799 320.852661,309.459412 
	C323.148956,312.263031 325.045685,312.309418 327.498566,310.271393 
	C338.241486,301.345490 348.939972,292.365936 359.704620,283.466400 
	C361.979370,281.585785 362.183899,279.720551 360.316711,277.522614 
	C357.841217,274.608612 355.292053,271.752563 352.922180,268.754852 
	C350.912567,266.212860 349.011261,266.247131 346.626526,268.267181 
	C341.044586,272.995422 335.217987,277.443481 329.770721,282.318207 
	C327.196533,284.621826 325.598267,284.183716 323.676270,281.807434 
	C320.748962,278.188263 317.958344,274.405548 314.649139,271.162170 
	C310.815552,267.404816 312.388611,265.323700 315.918213,262.661316 
	C321.353363,258.561493 326.392242,253.939774 331.666687,249.621872 
	C333.951874,247.751099 334.170593,245.980499 332.154846,243.757294 
	C329.923950,241.296799 327.705627,238.796387 325.764496,236.109161 
	C323.552582,233.047012 321.511353,232.426743 318.436279,235.132462 
	C313.196960,239.742493 307.717468,244.081024 302.303986,248.490845 
	C300.063568,250.315903 297.982269,251.464096 295.661560,248.217422 
	C293.154877,244.710571 290.259094,241.462662 287.346008,238.272552 
	C285.548126,236.303650 285.819061,234.824646 287.699707,233.263031 
	C291.152496,230.396027 294.617889,227.543106 298.025665,224.623184 
	C310.675110,213.784668 310.376038,218.445068 299.388123,204.332123 
	C296.963013,201.217285 294.926575,201.337448 292.012451,203.862030 
	C283.973724,210.826172 275.687775,217.504272 267.528625,224.330200 
	C254.830719,234.953262 256.898346,231.298889 266.203003,243.334839 
M676.953430,79.214157 
	C663.130188,79.229568 649.306152,79.332726 635.484314,79.202003 
	C631.779419,79.166969 630.080627,80.079292 630.098083,84.212044 
	C630.230652,115.688133 630.214600,147.165146 630.118713,178.641510 
	C630.107727,182.240829 631.168579,183.715393 634.951538,183.662735 
	C648.439270,183.475021 661.931091,183.463455 675.420227,183.552811 
	C679.147339,183.577484 681.054871,182.507431 680.694031,178.411041 
	C680.417358,175.270599 680.474792,172.078018 680.661865,168.925125 
	C680.901611,164.883331 679.338867,163.162399 675.160339,163.298935 
	C668.339050,163.521835 661.501648,163.237579 654.679138,163.440613 
	C650.956055,163.551407 649.610291,162.074738 649.742798,158.448212 
	C649.919006,153.625183 649.903992,148.785385 649.718994,143.962448 
	C649.597778,140.800629 650.616516,139.391037 653.963379,139.544449 
	C658.283936,139.742523 662.622986,139.653107 666.951050,139.554428 
	C682.863220,139.191727 680.314087,142.626495 680.553528,124.762321 
	C680.597656,121.472015 679.352234,119.926041 675.813232,120.026390 
	C668.823669,120.224571 661.819458,119.941658 654.832581,120.183449 
	C650.858276,120.320992 649.443176,118.777443 649.658447,114.921738 
	C649.871582,111.103516 649.921326,107.245613 649.623352,103.437935 
	C649.319641,99.557144 650.951233,98.493759 654.549255,98.717773 
	C658.530823,98.965668 662.539795,98.774330 666.536865,98.771545 
	C681.820435,98.760902 681.882507,98.754501 680.401123,83.433640 
	C680.260071,81.974342 678.715149,80.650757 676.953430,79.214157 
M1035.080078,269.661438 
	C1018.063110,281.459869 1001.046143,293.258270 982.989502,305.777557 
	C987.449463,309.954590 990.946411,313.489349 994.774353,316.619171 
	C995.653809,317.338226 997.962646,317.190765 999.116638,316.548676 
	C1006.438171,312.475067 1006.392578,312.391937 1012.272888,318.275421 
	C1013.803162,319.806549 1015.710938,321.125763 1016.736938,322.942383 
	C1017.538269,324.361206 1018.007019,326.817657 1017.308716,328.093201 
	C1013.329224,335.362732 1013.194824,335.289642 1019.068420,341.176788 
	C1020.244507,342.355591 1021.501465,343.464233 1022.585449,344.722168 
	C1024.852051,347.352417 1026.468628,346.942596 1028.365234,344.129639 
	C1032.641235,337.787811 1037.204102,331.640106 1041.611084,325.385773 
	C1055.502563,305.670959 1069.326538,285.908356 1083.308228,266.257751 
	C1085.477905,263.208252 1085.394531,261.004059 1082.661987,258.500183 
	C1079.472900,255.578171 1076.336548,252.560181 1073.501709,249.301605 
	C1070.952148,246.371017 1068.868042,246.026276 1065.556885,248.425629 
	C1055.726562,255.548996 1045.636963,262.314453 1035.080078,269.661438 
M1151.315430,341.103424 
	C1144.122925,330.915375 1136.850098,320.782532 1129.784790,310.507019 
	C1127.537109,307.238037 1125.425537,306.994019 1122.418457,309.367737 
	C1119.682373,311.527405 1116.727417,313.413910 1113.833374,315.368195 
	C1111.490479,316.950348 1110.797852,318.633148 1112.776733,321.116608 
	C1114.845459,323.712860 1116.457642,326.679047 1118.578735,329.225952 
	C1121.402100,332.616119 1120.713867,335.015778 1117.272705,337.411865 
	C1099.264648,349.950653 1081.396240,362.691376 1063.317993,375.127441 
	C1052.681396,382.444427 1052.546387,382.248260 1059.898438,392.948334 
	C1059.992676,393.085510 1060.098633,393.214661 1060.193237,393.351593 
	C1064.064453,398.953064 1064.251099,399.023010 1069.876221,395.042511 
	C1089.694946,381.018188 1109.521973,367.005066 1129.261841,352.870300 
	C1132.117065,350.825867 1134.000366,350.411774 1135.987793,353.855865 
	C1137.725098,356.866608 1140.075806,359.516632 1141.961670,362.450531 
	C1143.835449,365.365601 1145.920654,365.605499 1148.614380,363.626862 
	C1151.562622,361.461273 1154.588989,359.401184 1157.600708,357.323120 
	C1159.939331,355.709290 1160.482544,353.890350 1158.669556,351.452179 
	C1156.287720,348.249115 1154.058960,344.932373 1151.315430,341.103424 
M132.097198,422.283142 
	C157.059631,435.600311 182.067398,448.833832 206.941513,462.313965 
	C211.274902,464.662384 213.382889,463.761444 215.487762,459.570160 
	C220.041870,450.501801 224.930038,441.598969 229.780960,432.682465 
	C237.041580,419.336670 236.812469,418.817169 222.529587,412.870239 
	C219.400406,411.567322 217.691757,412.017212 216.145920,415.047821 
	C212.819214,421.569885 209.147842,427.915680 205.792679,434.423920 
	C204.282211,437.353943 202.765472,437.561371 199.879639,436.000000 
	C178.654877,424.516785 157.331436,413.215942 136.036377,401.862701 
	C129.351288,398.298615 129.325272,398.312256 125.937569,404.849854 
	C120.149902,416.018951 120.149872,416.018951 132.097198,422.283142 
M1158.135010,412.756775 
	C1137.546997,422.951752 1116.970825,433.171082 1096.357544,443.314697 
	C1093.377441,444.781097 1092.430298,446.595917 1094.087402,449.663818 
	C1095.907471,453.033600 1097.556641,456.496429 1099.251221,459.933105 
	C1100.545166,462.557281 1102.249878,462.982422 1104.922241,461.633087 
	C1130.736206,448.599823 1156.646729,435.757172 1182.419922,422.644409 
	C1195.143433,416.170990 1194.968384,416.006470 1187.958008,403.418884 
	C1186.214233,400.288116 1184.369995,399.529816 1181.138916,401.209320 
	C1173.747681,405.051270 1166.248779,408.686127 1158.135010,412.756775 
z"/>
<path fill="#D7BB98" opacity="1.000000" stroke="none" 
	d="
M693.678589,814.717896 
	C703.521973,809.471069 711.883240,803.185730 717.813538,793.861938 
	C726.149902,780.755188 726.270691,767.034058 720.501404,753.348572 
	C713.026794,735.617798 698.657532,723.922913 683.088562,713.607239 
	C677.854797,710.139526 672.399109,707.006775 666.313843,703.272278 
	C668.261658,701.649414 669.608704,700.305725 671.160217,699.267456 
	C695.621460,682.898254 720.566467,667.205811 744.465759,650.055542 
	C769.956543,631.763245 795.088257,612.852417 819.215271,592.813171 
	C840.545959,575.096497 860.935181,556.109680 880.505432,536.454407 
	C895.467712,521.427124 909.115540,504.961517 922.223328,488.253357 
	C935.636597,471.155670 947.774658,453.049652 960.258118,435.235901 
	C963.449036,430.682556 965.061707,434.136353 966.426575,436.168213 
	C974.390991,448.023743 982.619568,459.742126 989.851868,472.040283 
	C1002.964661,494.337860 1013.157471,518.024658 1021.338806,542.568176 
	C1029.401978,566.757324 1035.360962,591.547607 1037.621582,616.860107 
	C1039.674072,639.841003 1040.804565,663.123047 1039.601440,686.129089 
	C1037.284790,730.429138 1026.670410,773.059875 1008.707397,813.761169 
	C995.621521,843.411682 979.600281,871.347778 959.428406,896.722717 
	C941.188232,919.667480 920.867615,940.523254 897.950684,959.068909 
	C871.098450,980.799133 842.064575,998.646057 810.629517,1012.579163 
	C780.423340,1025.967529 748.989197,1035.730713 716.131897,1039.955811 
	C697.724915,1042.322876 679.165222,1044.476074 660.643738,1044.765747 
	C627.489136,1045.284302 594.775635,1040.898438 562.530396,1032.813599 
	C520.963928,1022.391479 482.424011,1005.131531 446.757446,981.660400 
	C420.706421,964.516846 397.031158,944.339844 375.822510,921.369446 
	C374.035431,919.433960 373.627899,917.986877 375.570679,915.873657 
	C389.407990,900.821960 402.491028,885.005188 417.106628,870.757690 
	C438.295380,850.102417 460.907654,830.871155 485.861267,814.857056 
	C523.352722,790.796814 561.298035,767.440918 599.169495,743.977844 
	C608.963928,737.909790 619.046753,738.061096 628.708130,744.792053 
	C634.844666,749.067383 641.040283,753.264526 647.053101,757.708191 
	C650.770569,760.455688 653.722656,763.834106 652.953613,769.043213 
	C652.175781,774.311829 648.602600,777.065613 644.049805,778.851685 
	C619.283264,788.567566 594.393188,797.979248 569.758911,808.018677 
	C545.796143,817.784424 522.882080,829.803955 502.415985,845.674866 
	C486.483765,858.029785 472.310181,872.423462 462.225616,890.254639 
	C460.289734,893.677551 459.836853,897.275513 463.033386,900.259155 
	C465.982117,903.011475 471.501068,902.929077 474.430389,900.049438 
	C498.767792,876.124939 529.013794,862.877441 560.965942,853.378235 
	C587.698792,845.430786 614.981384,839.351257 641.872681,831.910278 
	C657.706543,827.528992 673.259216,822.127808 688.916626,817.117310 
	C690.473083,816.619263 691.877563,815.646179 693.678589,814.717896 
z"/>
<path fill="#BF8D55" opacity="1.000000" stroke="none" 
	d="
M275.999573,696.091064 
	C275.606201,677.497070 274.359436,659.336914 275.037018,641.248901 
	C276.782837,594.643799 288.083282,550.137207 306.852295,507.515686 
	C321.172974,474.995697 339.947632,445.167389 362.617645,417.867767 
	C387.355408,388.078156 415.984039,362.562286 448.511200,341.455780 
	C484.606415,318.033997 523.488586,301.008453 565.283691,290.851196 
	C592.994629,284.116791 621.078735,280.324951 649.709167,279.702484 
	C703.455933,278.533936 755.061096,288.292755 804.610657,308.684265 
	C840.729492,323.548553 873.976990,343.570801 903.419922,369.283905 
	C918.684570,382.614716 932.517700,397.581360 947.069458,411.734985 
	C949.505188,414.104095 949.098511,415.811035 946.763062,417.882263 
	C920.861938,440.852539 895.326233,464.248566 869.014771,486.737488 
	C851.190552,501.972290 832.297241,515.956909 813.861572,530.474609 
	C812.207520,531.777161 810.402405,532.887939 807.612488,534.817383 
	C806.882263,504.741150 794.492126,482.779205 767.371033,471.034790 
	C750.504150,463.730835 733.234314,464.672058 716.457092,472.187897 
	C706.038269,476.855286 697.592224,484.078857 691.011536,493.350891 
	C684.542908,502.465118 680.456299,512.503174 679.629395,523.834595 
	C678.801636,535.177673 679.510193,546.442261 685.217773,556.296997 
	C690.610291,565.607605 697.612549,573.985901 704.087097,583.026001 
	C701.355408,582.785278 698.153076,582.430237 694.941101,582.232056 
	C676.179749,581.073914 657.429199,579.350830 638.650513,578.940979 
	C595.932922,578.008545 560.012939,593.984314 530.752197,624.783264 
	C507.991516,648.740417 492.618042,677.091797 482.947754,708.605835 
	C482.313995,710.671143 481.508362,712.704895 481.105347,714.814941 
	C480.437927,718.309204 480.864044,721.575256 484.526825,723.337646 
	C487.965271,724.992249 490.988892,724.310120 493.469055,721.347168 
	C501.695526,711.519470 509.841766,701.622803 518.182983,691.893372 
	C537.581299,669.266602 558.314819,648.235657 585.796204,635.193970 
	C600.331360,628.296021 615.703979,624.875000 631.621094,624.244507 
	C644.763672,623.723938 657.944580,624.157654 671.108276,624.215454 
	C672.000854,624.219360 672.891785,624.618225 675.142822,625.161621 
	C669.606689,628.709290 665.076355,631.612732 660.545715,634.515808 
	C622.269165,659.041992 583.671997,683.085144 545.800659,708.221863 
	C502.852295,736.728455 462.135376,768.158142 426.701904,805.894714 
	C400.451843,833.851074 377.778656,864.328979 361.929810,899.509277 
	C361.484955,900.496765 360.683197,901.323486 359.584442,902.882690 
	C356.247833,898.768677 353.116394,895.185608 350.287811,891.377563 
	C316.827637,846.329895 294.149902,796.341614 282.630585,741.451294 
	C279.529663,726.675293 278.177582,711.532349 275.999573,696.091064 
M525.692749,444.671753 
	C531.171753,449.186157 537.263062,453.143890 541.989563,458.342468 
	C549.516357,466.620972 553.103821,477.172394 556.154114,487.793365 
	C557.916382,493.929352 559.520325,500.110779 561.565369,507.631958 
	C562.628967,504.933960 563.266907,503.622986 563.669678,502.243347 
	C566.091797,493.946136 568.061340,485.492615 570.930908,477.355377 
	C576.546875,461.430145 586.471558,448.951874 602.559570,442.686920 
	C612.456970,438.832672 622.801758,436.128204 632.941772,432.895294 
	C634.209106,432.491211 635.452637,432.012329 636.707214,431.568146 
	C635.005859,430.087799 633.463867,429.649231 631.935364,429.167755 
	C622.577271,426.219635 613.137634,423.502045 603.887756,420.246033 
	C592.475464,416.228851 583.798279,408.606079 577.446777,398.390198 
	C570.300110,386.895447 567.187744,373.899323 563.853333,360.996948 
	C563.446106,359.421082 562.803833,357.905945 561.868896,355.200867 
	C558.667969,365.834717 556.236328,375.168427 553.041992,384.233429 
	C548.149292,398.118164 540.500977,410.442535 526.734680,416.790131 
	C515.777405,421.842560 503.963013,425.039093 492.518005,429.027557 
	C490.788330,429.630341 488.998138,430.059326 486.779633,430.700592 
	C500.108582,435.447754 512.570374,439.886047 525.692749,444.671753 
M361.238037,524.781494 
	C362.977722,525.330994 364.689392,526.002075 366.461548,526.410828 
	C381.323364,529.839539 391.011627,538.438110 394.130920,553.763000 
	C394.598572,556.060486 395.492584,558.271240 396.097260,560.224487 
	C400.318390,551.914185 402.835754,542.351013 408.882690,536.336243 
	C415.053589,530.198120 424.691742,527.545837 431.514832,524.034912 
	C424.763794,520.603149 415.183929,518.070374 409.143616,512.009827 
	C403.023438,505.869232 400.402405,496.241211 396.335876,488.310577 
	C396.442657,488.172729 396.024292,488.509430 395.880707,488.938110 
	C395.513336,490.035156 395.260010,491.171021 394.975555,492.295013 
	C391.714386,505.182251 386.047577,516.040833 371.913116,519.839783 
	C369.184387,520.573181 366.466736,521.381226 363.813446,522.345886 
	C362.708160,522.747803 361.784760,523.649841 361.238037,524.781494 
M352.632690,703.703674 
	C357.233704,706.498962 362.731720,708.486755 366.181213,712.318604 
	C369.572052,716.085266 370.883362,721.723999 373.107208,726.541199 
	C375.994843,712.590271 384.768463,705.009277 398.912048,702.223633 
	C392.430542,698.682007 386.088501,696.705872 381.954895,692.539001 
	C377.821716,688.372559 375.897186,682.015137 373.313110,677.194092 
	C370.511139,682.361816 368.537750,688.838989 364.297424,693.013367 
	C360.164673,697.081909 353.713287,698.795166 348.202118,701.581848 
	C348.634369,702.050171 348.808929,702.394043 349.078552,702.503174 
	C350.002411,702.877441 350.959717,703.169312 352.632690,703.703674 
M489.141541,562.343872 
	C485.273346,571.328674 476.220306,572.737610 468.036285,576.521973 
	C482.411957,579.293640 490.842926,587.547913 493.600861,602.211914 
	C496.635590,587.639099 504.787048,579.145203 520.444580,577.205017 
	C513.236938,573.581848 506.705444,571.887634 502.573090,567.779907 
	C498.334015,563.566040 496.440979,556.992126 493.274506,550.982910 
	C491.911499,554.821106 490.696167,558.243469 489.141541,562.343872 
M696.030579,396.652069 
	C691.716064,398.081390 687.401550,399.510712 682.741943,401.054352 
	C691.464844,405.558411 700.135437,409.001678 707.612793,414.170929 
	C716.026123,419.987183 715.778381,430.993652 719.387939,439.600494 
	C723.809509,430.842682 726.433289,420.861176 732.727478,414.526764 
	C739.000549,408.213562 748.955017,405.558350 757.785461,401.049042 
	C756.225647,400.582672 754.850037,400.233429 753.517273,399.762756 
	C744.664368,396.636505 734.685181,395.089966 729.506104,386.025696 
	C726.585999,380.915131 724.991821,375.048676 722.779236,369.531219 
	C722.054565,367.724213 721.263306,365.943939 720.502502,364.151428 
	C718.524780,366.933014 717.820496,369.452026 717.116638,371.971161 
	C713.990112,383.160309 708.903564,392.712799 696.030579,396.652069 
z"/>
<path fill="#C1915B" opacity="1.000000" stroke="none" 
	d="
M349.137207,166.167542 
	C354.814178,158.082840 362.059387,157.147461 369.067780,162.821152 
	C380.055084,171.716034 391.224731,180.385880 402.339630,189.122452 
	C402.937012,189.592041 403.741669,189.797943 405.788300,190.747711 
	C404.319214,187.628265 403.494812,185.587280 402.435486,183.676590 
	C396.543549,173.049438 390.693054,162.397064 384.615112,151.876511 
	C382.295044,147.860550 383.251373,145.668152 387.241119,143.622086 
	C400.178955,136.987106 397.688782,136.501770 404.351562,148.602783 
	C418.082733,173.541351 431.533508,198.634247 445.114410,223.655624 
	C448.052795,229.069321 447.611023,229.161728 442.724854,232.604980 
	C436.937500,236.683289 432.608032,235.848724 427.271484,231.533447 
	C417.320648,223.486893 406.762146,216.191193 396.440521,208.604797 
	C395.558411,207.956451 394.556610,207.470978 393.610443,206.909851 
	C393.229614,207.155594 392.848785,207.401337 392.467957,207.647079 
	C393.778107,210.150024 395.022522,212.690048 396.410095,215.149292 
	C401.563232,224.282440 406.625244,233.471710 412.008453,242.468201 
	C414.444458,246.539337 413.518921,248.820023 409.395233,250.595200 
	C406.961182,251.643036 404.653137,253.026566 402.395874,254.431747 
	C399.078094,256.497131 397.087982,255.623077 395.260223,252.222092 
	C386.041687,235.068848 376.642059,218.012955 367.312286,200.919479 
	C361.809601,190.837738 356.303162,180.757980 350.841370,170.654114 
	C350.138458,169.353806 349.694275,167.913635 349.137207,166.167542 
z"/>
<path fill="#C1915B" opacity="1.000000" stroke="none" 
	d="
M794.059814,121.320465 
	C789.491150,144.914062 785.007324,168.089340 780.635315,191.285645 
	C779.808044,195.674988 778.506836,197.926422 773.096863,196.824905 
	C764.545410,195.083771 764.305298,195.414703 762.220154,187.189941 
	C758.913086,174.145264 755.603943,161.101105 752.257446,148.066513 
	C751.996643,147.050598 751.436401,146.111542 750.392944,143.695770 
	C749.623901,146.851486 749.116699,148.525604 748.815186,150.235977 
	C746.767578,161.848694 744.674561,173.454727 742.793457,185.094788 
	C742.133118,189.181244 740.298767,190.534637 736.275940,189.402008 
	C733.411133,188.595428 730.438110,188.053787 727.476746,187.740005 
	C723.871643,187.358017 722.974365,185.284286 723.578430,182.199997 
	C727.312378,163.136429 731.129028,144.089035 734.853455,125.023651 
	C737.113098,113.457008 739.399353,101.891953 741.376526,90.275627 
	C742.097351,86.040642 743.978699,84.410164 748.130798,85.349998 
	C749.749084,85.716309 751.373535,86.230484 753.011475,86.301155 
	C757.251526,86.484123 759.025696,88.746162 759.842346,92.772202 
	C762.882690,107.760590 766.183655,122.696144 769.396179,137.649536 
	C769.601257,138.604340 769.885742,139.542130 771.223022,140.674576 
	C771.888062,137.927826 772.686890,135.205582 773.194885,132.430099 
	C775.377502,120.505432 777.495056,108.568710 779.591003,96.628441 
	C780.261536,92.808899 782.358215,91.596382 786.000610,92.761528 
	C787.267029,93.166626 788.570740,93.470657 789.873535,93.743759 
	C799.225220,95.704079 799.176208,95.687164 797.159607,105.240997 
	C796.061890,110.441505 795.168823,115.685219 794.059814,121.320465 
z"/>
<path fill="#C1915B" opacity="1.000000" stroke="none" 
	d="
M1252.341431,633.472412 
	C1252.878540,641.398376 1252.912476,641.705200 1245.513306,642.523254 
	C1227.844116,644.476685 1210.135132,646.065613 1192.451416,647.891541 
	C1179.892090,649.188293 1167.323853,650.450684 1154.811157,652.116516 
	C1150.922974,652.634216 1149.391113,651.627380 1148.679321,647.866699 
	C1147.009888,639.048645 1147.438843,637.543091 1155.048218,632.908142 
	C1165.708618,626.414673 1176.461670,620.073669 1187.147461,613.621582 
	C1189.074707,612.457886 1190.868408,611.072876 1192.343872,608.872192 
	C1188.475952,609.387329 1184.612061,609.934265 1180.739502,610.411377 
	C1170.515625,611.670959 1160.276123,612.812683 1150.069458,614.197327 
	C1147.172363,614.590332 1145.559448,613.875916 1145.156250,610.903015 
	C1144.664795,607.279907 1144.127930,603.662964 1143.630981,600.040588 
	C1143.199097,596.892029 1144.685547,595.445801 1147.766724,595.148987 
	C1168.764893,593.126648 1189.760620,591.077454 1210.752197,588.988281 
	C1221.164551,587.951965 1231.593140,587.011475 1241.960571,585.624451 
	C1246.294800,585.044556 1247.894653,586.544006 1247.843506,590.588501 
	C1247.841309,590.754944 1247.812378,590.935120 1247.863403,591.086060 
	C1250.571899,599.109863 1246.549683,602.811279 1239.641602,606.169006 
	C1228.139648,611.759705 1217.171997,618.451111 1205.994141,624.705688 
	C1204.651733,625.456909 1203.401978,626.373779 1201.041992,627.907349 
	C1206.029907,627.907349 1209.630249,628.243042 1213.147583,627.845276 
	C1224.369629,626.576416 1235.565430,625.067993 1246.761475,623.578064 
	C1249.949951,623.153748 1251.472534,624.467041 1251.702148,627.583435 
	C1251.836426,629.407776 1252.066040,631.225098 1252.341431,633.472412 
z"/>
<path fill="#C1915B" opacity="1.000000" stroke="none" 
	d="
M909.118042,240.061737 
	C925.750854,215.331421 942.233398,190.929611 958.477112,166.369781 
	C960.948303,162.633377 962.799194,161.618408 966.700134,164.456436 
	C974.098022,169.838440 981.973816,174.565826 989.343384,179.983704 
	C999.837830,187.698975 1003.127075,198.563034 1000.603577,210.894791 
	C998.371643,221.801483 991.303528,228.969101 980.783752,232.832520 
	C979.237000,233.400558 976.994690,235.431931 977.096313,236.612183 
	C978.128845,248.608566 970.441467,256.849945 964.895630,265.996918 
	C962.568237,269.835541 959.850891,273.437225 957.510437,277.268524 
	C955.469482,280.609650 953.421509,281.384491 949.848816,279.016998 
	C937.531738,270.854706 937.459229,270.960419 945.605774,258.660614 
	C948.271912,254.635193 950.967163,250.628998 953.617920,246.593552 
	C959.664795,237.387833 958.007568,230.785690 948.450928,224.984055 
	C945.716614,223.324112 944.145325,223.643021 942.372803,226.383270 
	C936.315002,235.748520 929.902039,244.884811 923.888367,254.277390 
	C921.484863,258.031403 919.191711,259.077942 915.492981,256.084595 
	C913.303894,254.312988 910.921936,252.677490 908.400696,251.442001 
	C904.328796,249.446640 903.914001,247.077820 906.813782,243.746994 
	C907.674805,242.758011 908.207031,241.482773 909.118042,240.061737 
M981.623291,206.761322 
	C982.583740,199.395233 978.351807,192.805176 969.326294,189.937546 
	C963.828796,188.190872 963.429016,194.570724 961.392273,197.492416 
	C953.939880,208.182465 954.154297,205.500488 964.653564,212.559708 
	C971.308655,217.034271 977.836182,214.825073 981.623291,206.761322 
z"/>
<path fill="#C1915B" opacity="1.000000" stroke="none" 
	d="
M213.768723,352.180176 
	C202.259430,342.843475 191.082016,333.663269 179.786026,324.631378 
	C177.414459,322.735168 177.197632,321.101501 179.042801,318.833038 
	C184.390472,312.258484 189.391251,305.376617 195.053329,299.088196 
	C207.009369,285.809540 223.723221,284.232300 238.001602,295.170654 
	C249.080658,303.658051 259.942749,312.464264 270.482147,321.611664 
	C284.193207,333.511871 285.728119,351.896271 274.648529,366.443787 
	C270.018433,372.523132 265.102478,378.384003 260.414398,384.420227 
	C258.304352,387.137085 256.433807,387.184235 253.778122,384.978302 
	C240.604324,374.035797 227.310150,363.238159 213.768723,352.180176 
M227.011307,311.376129 
	C225.788666,310.521393 224.651489,309.493134 223.328812,308.841492 
	C217.184174,305.814331 211.260803,308.201721 206.349792,315.985413 
	C202.604187,321.921967 209.496506,322.252502 211.548737,325.127808 
	C212.019714,325.787659 212.762711,326.261597 213.407608,326.787903 
	C226.039734,337.097565 238.636230,347.451965 251.383453,357.617340 
	C252.447495,358.465881 255.303467,358.799225 256.022583,358.075653 
	C262.013550,352.047455 266.322723,343.157562 256.716125,335.345276 
	C247.034836,327.472290 237.278137,319.691986 227.011307,311.376129 
z"/>
<path fill="#C1915B" opacity="1.000000" stroke="none" 
	d="
M520.127075,136.221039 
	C517.214966,124.536102 514.879944,113.281029 521.579102,102.468292 
	C528.093079,91.954369 537.812988,87.220932 549.870239,88.385231 
	C561.096008,89.469238 569.581787,95.422241 573.860474,106.103241 
	C579.350586,119.808250 578.936096,119.904068 564.709473,123.256424 
	C559.707581,124.435066 557.465088,123.431297 556.945801,118.428841 
	C556.861572,117.616890 556.510620,116.825363 556.233704,116.041794 
	C554.191895,110.263649 549.258484,106.811180 544.704285,107.958588 
	C539.675415,109.225594 536.176208,115.130699 537.259888,121.006729 
	C538.826233,129.500015 540.604858,137.954163 542.294312,146.424744 
	C543.464111,152.289566 544.354492,158.230820 545.925171,163.986328 
	C546.720947,166.902252 548.195496,170.112839 550.382141,172.025208 
	C552.309387,173.710785 555.777771,174.691498 558.341858,174.341919 
	C562.116638,173.827286 564.821655,170.995392 565.346375,166.872940 
	C565.575562,165.071732 565.349121,163.216980 565.414917,161.389618 
	C565.555237,157.492126 564.177795,155.723755 560.025208,157.106003 
	C555.750000,158.529053 552.866943,157.456314 552.545166,152.395218 
	C552.471741,151.240662 552.190063,150.097427 551.977600,148.953918 
	C550.053528,138.593750 550.049927,138.584473 560.358948,136.479065 
	C565.401550,135.449249 570.453430,134.465012 575.500305,133.455826 
	C578.590515,132.837891 580.433044,133.448486 580.971436,137.177521 
	C582.274109,146.199921 584.917908,155.111572 585.388733,164.152878 
	C586.219055,180.095398 575.536926,191.737045 558.996521,194.502991 
	C546.603821,196.575348 531.884460,187.189423 528.142822,173.627075 
	C524.794678,161.491180 522.788208,148.985153 520.127075,136.221039 
z"/>
<path fill="#C1915B" opacity="1.000000" stroke="none" 
	d="
M161.056702,601.940552 
	C170.550476,611.516357 172.126862,622.604492 167.815933,634.447998 
	C163.884872,645.248047 152.141159,653.105347 140.292145,652.426270 
	C125.043053,651.552185 109.868919,649.442810 94.632683,648.244568 
	C85.703735,647.542419 77.755447,645.230652 71.319725,638.595764 
	C63.344196,630.373352 60.544735,617.297485 65.369652,606.633057 
	C70.390755,595.535034 79.099861,589.326050 91.514862,589.056885 
	C105.038483,588.763794 104.837265,588.990540 103.259880,602.647095 
	C102.626671,608.129272 100.455070,609.329285 95.656563,608.778992 
	C93.565269,608.539062 91.176712,608.592407 89.285393,609.381165 
	C85.213196,611.079468 82.316711,614.011353 82.694626,618.931274 
	C83.000786,622.916992 87.153175,627.469299 91.481628,628.057434 
	C100.042831,629.220825 108.636589,630.162048 117.231476,631.054626 
	C123.841644,631.741150 130.483292,632.124329 137.093704,632.808777 
	C142.004807,633.317261 146.512756,632.083496 148.638550,627.710876 
	C149.884247,625.148560 149.829651,621.084290 148.679993,618.420776 
	C146.699677,613.832703 141.865341,612.697937 137.240250,612.988953 
	C136.005753,613.066650 133.943085,615.717896 133.966217,617.160278 
	C134.042084,621.889709 132.259872,623.157532 127.651543,622.801270 
	C113.646599,621.718445 113.653915,621.881226 115.090462,608.012817 
	C115.552643,603.550781 115.614204,599.025146 116.433533,594.635864 
	C116.677223,593.330322 118.975723,591.336487 120.163536,591.448730 
	C129.567245,592.337097 139.043381,593.124023 148.256454,595.077637 
	C152.705307,596.020996 156.635727,599.409180 161.056702,601.940552 
z"/>
<path fill="#C1915B" opacity="1.000000" stroke="none" 
	d="
M1218.506226,482.473083 
	C1235.959106,500.101593 1229.159058,526.701355 1205.824463,533.756592 
	C1190.895142,538.270447 1176.082397,543.169250 1161.159546,547.705383 
	C1148.794312,551.464111 1133.091064,544.688965 1127.004028,533.229736 
	C1120.567139,521.111511 1123.310181,504.728577 1134.216187,496.754791 
	C1139.679688,492.760315 1146.422974,490.255829 1152.902100,487.968994 
	C1163.867310,484.098694 1175.124023,481.063538 1186.180542,477.440155 
	C1197.737061,473.653015 1208.434326,474.751740 1218.506226,482.473083 
M1175.742554,501.251740 
	C1167.807007,503.719971 1159.806763,506.001343 1151.955200,508.712494 
	C1145.003418,511.112915 1141.638428,516.752197 1143.522461,521.940918 
	C1145.682739,527.890320 1151.804810,530.364136 1158.856689,528.154602 
	C1164.567261,526.365295 1170.294067,524.627319 1175.995728,522.810059 
	C1184.551758,520.083069 1193.170776,517.524841 1201.612549,514.477783 
	C1207.685425,512.285889 1210.454346,506.525299 1208.586304,501.379852 
	C1206.674561,496.113739 1201.189575,493.621857 1195.114624,495.386810 
	C1188.891357,497.194885 1182.702515,499.121887 1175.742554,501.251740 
z"/>
<path fill="#C1915B" opacity="1.000000" stroke="none" 
	d="
M158.065048,490.131653 
	C166.523560,492.744873 174.852066,494.575073 181.208664,500.887177 
	C189.884476,509.502350 192.779221,522.002441 188.340073,532.930481 
	C183.765656,544.191528 172.873291,552.144287 160.868652,551.463989 
	C153.892715,551.068726 146.945358,548.902527 140.144318,546.972290 
	C128.819901,543.758301 117.509888,540.419495 106.397430,536.548767 
	C85.360214,529.221069 78.436302,505.073669 92.770866,488.540039 
	C101.111160,478.920258 112.385475,477.021576 124.249809,480.040588 
	C135.510269,482.905945 146.545563,486.656158 158.065048,490.131653 
M158.736481,532.024414 
	C165.015732,533.207764 169.486755,528.955383 170.795700,523.989075 
	C171.922150,519.715210 168.311768,514.365601 162.821426,512.069580 
	C160.684128,511.175690 158.410034,510.599792 156.181885,509.933807 
	C143.429459,506.122253 130.731583,502.108887 117.893311,498.611420 
	C110.613663,496.628235 104.746025,501.262024 104.857803,508.141907 
	C104.943077,513.390686 107.926498,516.540466 112.590683,518.010498 
	C127.658195,522.759277 142.783768,527.323853 158.736481,532.024414 
z"/>
<path fill="#C1915B" opacity="1.000000" stroke="none" 
	d="
M878.760376,165.366150 
	C890.395813,170.292267 890.395752,170.292236 885.729309,181.818695 
	C883.035889,188.471649 883.036987,188.469025 876.468750,185.830017 
	C870.447754,183.410904 864.376038,181.109863 858.422241,178.535645 
	C855.485901,177.266037 853.844360,177.781433 852.700439,180.854630 
	C851.017273,185.376526 849.075745,189.804047 847.180481,194.244568 
	C845.778015,197.530579 846.718811,199.552444 850.087158,200.835312 
	C856.462830,203.263611 862.727600,205.983032 869.101929,208.414932 
	C872.639282,209.764465 873.740295,211.755493 872.053772,215.328003 
	C870.563293,218.484970 869.368469,221.784378 868.107300,225.045731 
	C867.075500,227.714035 865.359741,228.644272 862.621826,227.533539 
	C849.363770,222.154846 836.097595,216.796280 822.835571,211.427505 
	C819.876831,210.229767 820.135376,208.160507 821.143677,205.702698 
	C826.448853,192.770996 831.652832,179.797729 836.965393,166.869080 
	C843.608093,150.703796 850.461243,134.623032 856.906494,118.379959 
	C858.498962,114.366760 860.400208,113.796867 864.059937,115.320236 
	C876.507324,120.501503 889.010376,125.550201 901.516846,130.588074 
	C904.353394,131.730698 905.455200,133.375458 904.134277,136.383896 
	C902.662292,139.736435 901.202515,143.112289 900.049011,146.581619 
	C898.885193,150.081894 896.844238,150.288086 893.859680,149.021286 
	C887.273560,146.225861 880.582886,143.672913 874.033508,140.796616 
	C870.854004,139.400284 869.151489,140.081573 868.000305,143.362381 
	C866.623962,147.284622 864.959595,151.111969 863.286377,154.921692 
	C862.156555,157.494141 862.937561,159.000763 865.444702,159.984894 
	C869.781738,161.687241 874.083252,163.479919 878.760376,165.366150 
z"/>
<path fill="#C1915B" opacity="1.000000" stroke="none" 
	d="
M265.967041,243.069061 
	C256.898346,231.298889 254.830719,234.953262 267.528625,224.330200 
	C275.687775,217.504272 283.973724,210.826172 292.012451,203.862030 
	C294.926575,201.337448 296.963013,201.217285 299.388123,204.332123 
	C310.376038,218.445068 310.675110,213.784668 298.025665,224.623184 
	C294.617889,227.543106 291.152496,230.396027 287.699707,233.263031 
	C285.819061,234.824646 285.548126,236.303650 287.346008,238.272552 
	C290.259094,241.462662 293.154877,244.710571 295.661560,248.217422 
	C297.982269,251.464096 300.063568,250.315903 302.303986,248.490845 
	C307.717468,244.081024 313.196960,239.742493 318.436279,235.132462 
	C321.511353,232.426743 323.552582,233.047012 325.764496,236.109161 
	C327.705627,238.796387 329.923950,241.296799 332.154846,243.757294 
	C334.170593,245.980499 333.951874,247.751099 331.666687,249.621872 
	C326.392242,253.939774 321.353363,258.561493 315.918213,262.661316 
	C312.388611,265.323700 310.815552,267.404816 314.649139,271.162170 
	C317.958344,274.405548 320.748962,278.188263 323.676270,281.807434 
	C325.598267,284.183716 327.196533,284.621826 329.770721,282.318207 
	C335.217987,277.443481 341.044586,272.995422 346.626526,268.267181 
	C349.011261,266.247131 350.912567,266.212860 352.922180,268.754852 
	C355.292053,271.752563 357.841217,274.608612 360.316711,277.522614 
	C362.183899,279.720551 361.979370,281.585785 359.704620,283.466400 
	C348.939972,292.365936 338.241486,301.345490 327.498566,310.271393 
	C325.045685,312.309418 323.148956,312.263031 320.852661,309.459412 
	C302.733917,287.337799 284.441772,265.358154 265.967041,243.069061 
z"/>
<path fill="#C1925C" opacity="1.000000" stroke="none" 
	d="
M677.387695,79.239166 
	C678.715149,80.650757 680.260071,81.974342 680.401123,83.433640 
	C681.882507,98.754501 681.820435,98.760902 666.536865,98.771545 
	C662.539795,98.774330 658.530823,98.965668 654.549255,98.717773 
	C650.951233,98.493759 649.319641,99.557144 649.623352,103.437935 
	C649.921326,107.245613 649.871582,111.103516 649.658447,114.921738 
	C649.443176,118.777443 650.858276,120.320992 654.832581,120.183449 
	C661.819458,119.941658 668.823669,120.224571 675.813232,120.026390 
	C679.352234,119.926041 680.597656,121.472015 680.553528,124.762321 
	C680.314087,142.626495 682.863220,139.191727 666.951050,139.554428 
	C662.622986,139.653107 658.283936,139.742523 653.963379,139.544449 
	C650.616516,139.391037 649.597778,140.800629 649.718994,143.962448 
	C649.903992,148.785385 649.919006,153.625183 649.742798,158.448212 
	C649.610291,162.074738 650.956055,163.551407 654.679138,163.440613 
	C661.501648,163.237579 668.339050,163.521835 675.160339,163.298935 
	C679.338867,163.162399 680.901611,164.883331 680.661865,168.925125 
	C680.474792,172.078018 680.417358,175.270599 680.694031,178.411041 
	C681.054871,182.507431 679.147339,183.577484 675.420227,183.552811 
	C661.931091,183.463455 648.439270,183.475021 634.951538,183.662735 
	C631.168579,183.715393 630.107727,182.240829 630.118713,178.641510 
	C630.214600,147.165146 630.230652,115.688133 630.098083,84.212044 
	C630.080627,80.079292 631.779419,79.166969 635.484314,79.202003 
	C649.306152,79.332726 663.130188,79.229568 677.387695,79.239166 
z"/>
<path fill="#C1915B" opacity="1.000000" stroke="none" 
	d="
M1035.364380,269.440674 
	C1045.636963,262.314453 1055.726562,255.548996 1065.556885,248.425629 
	C1068.868042,246.026276 1070.952148,246.371017 1073.501709,249.301605 
	C1076.336548,252.560181 1079.472900,255.578171 1082.661987,258.500183 
	C1085.394531,261.004059 1085.477905,263.208252 1083.308228,266.257751 
	C1069.326538,285.908356 1055.502563,305.670959 1041.611084,325.385773 
	C1037.204102,331.640106 1032.641235,337.787811 1028.365234,344.129639 
	C1026.468628,346.942596 1024.852051,347.352417 1022.585449,344.722168 
	C1021.501465,343.464233 1020.244507,342.355591 1019.068420,341.176788 
	C1013.194824,335.289642 1013.329224,335.362732 1017.308716,328.093201 
	C1018.007019,326.817657 1017.538269,324.361206 1016.736938,322.942383 
	C1015.710938,321.125763 1013.803162,319.806549 1012.272888,318.275421 
	C1006.392578,312.391937 1006.438171,312.475067 999.116638,316.548676 
	C997.962646,317.190765 995.653809,317.338226 994.774353,316.619171 
	C990.946411,313.489349 987.449463,309.954590 982.989502,305.777557 
	C1001.046143,293.258270 1018.063110,281.459869 1035.364380,269.440674 
M1036.198853,289.725586 
	C1032.981934,292.090973 1029.790283,294.491852 1026.542969,296.814728 
	C1018.434814,302.614716 1018.470520,302.754150 1026.231323,309.424377 
	C1028.195068,311.112183 1029.649658,311.225342 1031.213257,309.189148 
	C1033.745972,305.891205 1036.299072,302.608307 1038.787231,299.276978 
	C1043.805664,292.557587 1048.786255,285.809845 1053.782593,279.073792 
	C1053.457642,278.725983 1053.132690,278.378143 1052.807739,278.030334 
	C1047.469116,281.792328 1042.130371,285.554321 1036.198853,289.725586 
z"/>
<path fill="#C1915B" opacity="1.000000" stroke="none" 
	d="
M1151.539795,341.383972 
	C1154.058960,344.932373 1156.287720,348.249115 1158.669556,351.452179 
	C1160.482544,353.890350 1159.939331,355.709290 1157.600708,357.323120 
	C1154.588989,359.401184 1151.562622,361.461273 1148.614380,363.626862 
	C1145.920654,365.605499 1143.835449,365.365601 1141.961670,362.450531 
	C1140.075806,359.516632 1137.725098,356.866608 1135.987793,353.855865 
	C1134.000366,350.411774 1132.117065,350.825867 1129.261841,352.870300 
	C1109.521973,367.005066 1089.694946,381.018188 1069.876221,395.042511 
	C1064.251099,399.023010 1064.064453,398.953064 1060.193237,393.351593 
	C1060.098633,393.214661 1059.992676,393.085510 1059.898438,392.948334 
	C1052.546387,382.248260 1052.681396,382.444427 1063.317993,375.127441 
	C1081.396240,362.691376 1099.264648,349.950653 1117.272705,337.411865 
	C1120.713867,335.015778 1121.402100,332.616119 1118.578735,329.225952 
	C1116.457642,326.679047 1114.845459,323.712860 1112.776733,321.116608 
	C1110.797852,318.633148 1111.490479,316.950348 1113.833374,315.368195 
	C1116.727417,313.413910 1119.682373,311.527405 1122.418457,309.367737 
	C1125.425537,306.994019 1127.537109,307.238037 1129.784790,310.507019 
	C1136.850098,320.782532 1144.122925,330.915375 1151.539795,341.383972 
z"/>
<path fill="#C1915B" opacity="1.000000" stroke="none" 
	d="
M131.766754,422.115784 
	C120.149872,416.018951 120.149902,416.018951 125.937569,404.849854 
	C129.325272,398.312256 129.351288,398.298615 136.036377,401.862701 
	C157.331436,413.215942 178.654877,424.516785 199.879639,436.000000 
	C202.765472,437.561371 204.282211,437.353943 205.792679,434.423920 
	C209.147842,427.915680 212.819214,421.569885 216.145920,415.047821 
	C217.691757,412.017212 219.400406,411.567322 222.529587,412.870239 
	C236.812469,418.817169 237.041580,419.336670 229.780960,432.682465 
	C224.930038,441.598969 220.041870,450.501801 215.487762,459.570160 
	C213.382889,463.761444 211.274902,464.662384 206.941513,462.313965 
	C182.067398,448.833832 157.059631,435.600311 131.766754,422.115784 
z"/>
<path fill="#C1915B" opacity="1.000000" stroke="none" 
	d="
M1158.464355,412.580933 
	C1166.248779,408.686127 1173.747681,405.051270 1181.138916,401.209320 
	C1184.369995,399.529816 1186.214233,400.288116 1187.958008,403.418884 
	C1194.968384,416.006470 1195.143433,416.170990 1182.419922,422.644409 
	C1156.646729,435.757172 1130.736206,448.599823 1104.922241,461.633087 
	C1102.249878,462.982422 1100.545166,462.557281 1099.251221,459.933105 
	C1097.556641,456.496429 1095.907471,453.033600 1094.087402,449.663818 
	C1092.430298,446.595917 1093.377441,444.781097 1096.357544,443.314697 
	C1116.970825,433.171082 1137.546997,422.951752 1158.464355,412.580933 
z"/>
<path fill="#FDFBFA" opacity="1.000000" stroke="none" 
	d="
M525.362427,444.498047 
	C512.570374,439.886047 500.108582,435.447754 486.779633,430.700592 
	C488.998138,430.059326 490.788330,429.630341 492.518005,429.027557 
	C503.963013,425.039093 515.777405,421.842560 526.734680,416.790131 
	C540.500977,410.442535 548.149292,398.118164 553.041992,384.233429 
	C556.236328,375.168427 558.667969,365.834717 561.868896,355.200867 
	C562.803833,357.905945 563.446106,359.421082 563.853333,360.996948 
	C567.187744,373.899323 570.300110,386.895447 577.446777,398.390198 
	C583.798279,408.606079 592.475464,416.228851 603.887756,420.246033 
	C613.137634,423.502045 622.577271,426.219635 631.935364,429.167755 
	C633.463867,429.649231 635.005859,430.087799 636.707214,431.568146 
	C635.452637,432.012329 634.209106,432.491211 632.941772,432.895294 
	C622.801758,436.128204 612.456970,438.832672 602.559570,442.686920 
	C586.471558,448.951874 576.546875,461.430145 570.930908,477.355377 
	C568.061340,485.492615 566.091797,493.946136 563.669678,502.243347 
	C563.266907,503.622986 562.628967,504.933960 561.565369,507.631958 
	C559.520325,500.110779 557.916382,493.929352 556.154114,487.793365 
	C553.103821,477.172394 549.516357,466.620972 541.989563,458.342468 
	C537.263062,453.143890 531.171753,449.186157 525.362427,444.498047 
z"/>
<path fill="#FBF8F4" opacity="1.000000" stroke="none" 
	d="
M361.008362,524.552979 
	C361.784760,523.649841 362.708160,522.747803 363.813446,522.345886 
	C366.466736,521.381226 369.184387,520.573181 371.913116,519.839783 
	C386.047577,516.040833 391.714386,505.182251 394.975555,492.295013 
	C395.260010,491.171021 395.513336,490.035156 395.880707,488.938110 
	C396.024292,488.509430 396.442657,488.172729 396.335876,488.310577 
	C400.402405,496.241211 403.023438,505.869232 409.143616,512.009827 
	C415.183929,518.070374 424.763794,520.603149 431.514832,524.034912 
	C424.691742,527.545837 415.053589,530.198120 408.882690,536.336243 
	C402.835754,542.351013 400.318390,551.914185 396.097260,560.224487 
	C395.492584,558.271240 394.598572,556.060486 394.130920,553.763000 
	C391.011627,538.438110 381.323364,529.839539 366.461548,526.410828 
	C364.689392,526.002075 362.977722,525.330994 361.008362,524.552979 
z"/>
<path fill="#FAF6F1" opacity="1.000000" stroke="none" 
	d="
M352.268494,703.598145 
	C350.959717,703.169312 350.002411,702.877441 349.078552,702.503174 
	C348.808929,702.394043 348.634369,702.050171 348.202118,701.581848 
	C353.713287,698.795166 360.164673,697.081909 364.297424,693.013367 
	C368.537750,688.838989 370.511139,682.361816 373.313110,677.194092 
	C375.897186,682.015137 377.821716,688.372559 381.954895,692.539001 
	C386.088501,696.705872 392.430542,698.682007 398.912048,702.223633 
	C384.768463,705.009277 375.994843,712.590271 373.107208,726.541199 
	C370.883362,721.723999 369.572052,716.085266 366.181213,712.318604 
	C362.731720,708.486755 357.233704,706.498962 352.268494,703.598145 
z"/>
<path fill="#FAF6F1" opacity="1.000000" stroke="none" 
	d="
M489.311188,562.004822 
	C490.696167,558.243469 491.911499,554.821106 493.274506,550.982910 
	C496.440979,556.992126 498.334015,563.566040 502.573090,567.779907 
	C506.705444,571.887634 513.236938,573.581848 520.444580,577.205017 
	C504.787048,579.145203 496.635590,587.639099 493.600861,602.211914 
	C490.842926,587.547913 482.411957,579.293640 468.036285,576.521973 
	C476.220306,572.737610 485.273346,571.328674 489.311188,562.004822 
z"/>
<path fill="#E4D0B8" opacity="1.000000" stroke="none" 
	d="
M696.389893,396.507996 
	C708.903564,392.712799 713.990112,383.160309 717.116638,371.971161 
	C717.820496,369.452026 718.524780,366.933014 720.502502,364.151428 
	C721.263306,365.943939 722.054565,367.724213 722.779236,369.531219 
	C724.991821,375.048676 726.585999,380.915131 729.506104,386.025696 
	C734.685181,395.089966 744.664368,396.636505 753.517273,399.762756 
	C754.850037,400.233429 756.225647,400.582672 757.785461,401.049042 
	C748.955017,405.558350 739.000549,408.213562 732.727478,414.526764 
	C726.433289,420.861176 723.809509,430.842682 719.387939,439.600494 
	C715.778381,430.993652 716.026123,419.987183 707.612793,414.170929 
	C700.135437,409.001678 691.464844,405.558411 682.741943,401.054352 
	C687.401550,399.510712 691.716064,398.081390 696.389893,396.507996 
M732.095032,392.446198 
	C727.883728,385.356598 723.672363,378.266998 719.392334,371.061707 
	C716.694214,387.282227 706.289917,397.322144 689.401123,402.020355 
	C706.917908,405.786499 715.955017,416.885010 719.752502,434.181488 
	C721.080933,431.224274 721.691101,429.876007 722.291687,428.523499 
	C722.493530,428.068848 722.736023,427.618866 722.850037,427.140533 
	C725.871948,414.464752 734.676819,407.713959 746.471130,403.967743 
	C747.718262,403.571625 748.844116,402.793671 750.320618,402.043304 
	C743.925964,398.758087 738.269592,395.852112 732.095032,392.446198 
z"/>
<path fill="#FBF8F4" opacity="1.000000" stroke="none" 
	d="
M981.472229,207.129486 
	C977.836182,214.825073 971.308655,217.034271 964.653564,212.559708 
	C954.154297,205.500488 953.939880,208.182465 961.392273,197.492416 
	C963.429016,194.570724 963.828796,188.190872 969.326294,189.937546 
	C978.351807,192.805176 982.583740,199.395233 981.472229,207.129486 
z"/>
<path fill="#FCFAF7" opacity="1.000000" stroke="none" 
	d="
M227.282898,311.623596 
	C237.278137,319.691986 247.034836,327.472290 256.716125,335.345276 
	C266.322723,343.157562 262.013550,352.047455 256.022583,358.075653 
	C255.303467,358.799225 252.447495,358.465881 251.383453,357.617340 
	C238.636230,347.451965 226.039734,337.097565 213.407608,326.787903 
	C212.762711,326.261597 212.019714,325.787659 211.548737,325.127808 
	C209.496506,322.252502 202.604187,321.921967 206.349792,315.985413 
	C211.260803,308.201721 217.184174,305.814331 223.328812,308.841492 
	C224.651489,309.493134 225.788666,310.521393 227.282898,311.623596 
z"/>
<path fill="#FCFAF7" opacity="1.000000" stroke="none" 
	d="
M1176.120605,501.124268 
	C1182.702515,499.121887 1188.891357,497.194885 1195.114624,495.386810 
	C1201.189575,493.621857 1206.674561,496.113739 1208.586304,501.379852 
	C1210.454346,506.525299 1207.685425,512.285889 1201.612549,514.477783 
	C1193.170776,517.524841 1184.551758,520.083069 1175.995728,522.810059 
	C1170.294067,524.627319 1164.567261,526.365295 1158.856689,528.154602 
	C1151.804810,530.364136 1145.682739,527.890320 1143.522461,521.940918 
	C1141.638428,516.752197 1145.003418,511.112915 1151.955200,508.712494 
	C1159.806763,506.001343 1167.807007,503.719971 1176.120605,501.124268 
z"/>
<path fill="#FCFAF7" opacity="1.000000" stroke="none" 
	d="
M158.311707,531.991943 
	C142.783768,527.323853 127.658195,522.759277 112.590683,518.010498 
	C107.926498,516.540466 104.943077,513.390686 104.857803,508.141907 
	C104.746025,501.262024 110.613663,496.628235 117.893311,498.611420 
	C130.731583,502.108887 143.429459,506.122253 156.181885,509.933807 
	C158.410034,510.599792 160.684128,511.175690 162.821426,512.069580 
	C168.311768,514.365601 171.922150,519.715210 170.795700,523.989075 
	C169.486755,528.955383 165.015732,533.207764 158.311707,531.991943 
z"/>
<path fill="#FAF6F1" opacity="1.000000" stroke="none" 
	d="
M1036.495361,289.520935 
	C1042.130371,285.554321 1047.469116,281.792328 1052.807739,278.030334 
	C1053.132690,278.378143 1053.457642,278.725983 1053.782593,279.073792 
	C1048.786255,285.809845 1043.805664,292.557587 1038.787231,299.276978 
	C1036.299072,302.608307 1033.745972,305.891205 1031.213257,309.189148 
	C1029.649658,311.225342 1028.195068,311.112183 1026.231323,309.424377 
	C1018.470520,302.754150 1018.434814,302.614716 1026.542969,296.814728 
	C1029.790283,294.491852 1032.981934,292.090973 1036.495361,289.520935 
z"/>
<path fill="#FFFFFE" opacity="1.000000" stroke="none" 
	d="
M732.354126,392.696167 
	C738.269592,395.852112 743.925964,398.758087 750.320618,402.043304 
	C748.844116,402.793671 747.718262,403.571625 746.471130,403.967743 
	C734.676819,407.713959 725.871948,414.464752 722.850037,427.140533 
	C722.736023,427.618866 722.493530,428.068848 722.291687,428.523499 
	C721.691101,429.876007 721.080933,431.224274 719.752502,434.181488 
	C715.955017,416.885010 706.917908,405.786499 689.401123,402.020355 
	C706.289917,397.322144 716.694214,387.282227 719.392334,371.061707 
	C723.672363,378.266998 727.883728,385.356598 732.354126,392.696167 
z"/>
</svg>